#define edit_width 48
#define edit_height 48
static char edit_bits[] = {
   0x00, 0x00, 0x00, 0x00, 0x00, 0x00, 0x00, 0x00, 0x00, 0x00, 0x00, 0x00,
   0x00, 0x00, 0x00, 0x00, 0x00, 0x00, 0x00, 0x00, 0x00, 0x00, 0x00, 0x00,
   0xf0, 0x00, 0x00, 0x00, 0x00, 0x0f, 0xb0, 0x01, 0x00, 0x00, 0x80, 0x0f,
   0x70, 0x03, 0x00, 0x00, 0xc0, 0x0b, 0xf0, 0x06, 0x00, 0x00, 0xe0, 0x0d,
   0xe0, 0x0d, 0x00, 0x00, 0xf0, 0x06, 0xc0, 0x1b, 0x00, 0x00, 0x78, 0x03,
   0x80, 0x37, 0x00, 0x00, 0xbc, 0x01, 0x00, 0x6f, 0x00, 0x00, 0xde, 0x00,
   0x00, 0xde, 0x00, 0x00, 0x6f, 0x00, 0x00, 0xbc, 0x01, 0x80, 0x37, 0x00,
   0x00, 0x00, 0x00, 0x00, 0x00, 0x00, 0xe0, 0x7f, 0x7f, 0x78, 0xff, 0x0f,
   0x20, 0x40, 0x81, 0x48, 0x01, 0x08, 0x20, 0x40, 0x01, 0x49, 0x01, 0x08,
   0x20, 0x7f, 0x39, 0x4a, 0x9f, 0x0f, 0x20, 0x01, 0x49, 0x4a, 0x90, 0x00,
   0x20, 0x01, 0x49, 0x4a, 0x90, 0x00, 0x20, 0x1f, 0x49, 0x4a, 0x90, 0x00,
   0x20, 0x10, 0x49, 0x4a, 0x90, 0x00, 0x20, 0x10, 0x49, 0x4a, 0x90, 0x00,
   0x20, 0x1f, 0x49, 0x4a, 0x90, 0x00, 0x20, 0x01, 0x49, 0x4a, 0x90, 0x00,
   0x20, 0x01, 0x49, 0x4a, 0x90, 0x00, 0x20, 0x7f, 0x39, 0x4a, 0x90, 0x00,
   0x20, 0x40, 0x01, 0x49, 0x90, 0x00, 0x20, 0x40, 0x81, 0x48, 0x91, 0x00,
   0xe0, 0x7f, 0x7f, 0x78, 0xf3, 0x00, 0x00, 0x00, 0x00, 0x00, 0x06, 0x00,
   0x00, 0xf0, 0x06, 0xe0, 0x0d, 0x00, 0x00, 0x79, 0x03, 0xc0, 0x9b, 0x00,
   0x80, 0xbf, 0x01, 0x80, 0xf7, 0x01, 0xc0, 0xdf, 0x00, 0x00, 0xef, 0x03,
   0x80, 0x6f, 0x00, 0x00, 0xfe, 0x01, 0x80, 0x3f, 0x00, 0x00, 0xfc, 0x01,
   0xc0, 0x3f, 0x00, 0x00, 0xfc, 0x03, 0xe0, 0x7d, 0x00, 0x00, 0xbe, 0x07,
   0xf0, 0x3b, 0x00, 0x00, 0xdc, 0x0f, 0xf8, 0x13, 0x00, 0x00, 0xc8, 0x1f,
   0xfc, 0x01, 0x00, 0x00, 0x80, 0x3f, 0xf8, 0x00, 0x00, 0x00, 0x00, 0x1f,
   0x70, 0x00, 0x00, 0x00, 0x00, 0x0e, 0x20, 0x00, 0x00, 0x00, 0x00, 0x04,
   0x00, 0x00, 0x00, 0x00, 0x00, 0x00, 0x00, 0x00, 0x00, 0x00, 0x00, 0x00};
