#define exclon_width 16
#define exclon_height 16
static char exclon_bits[] = {
   0x00, 0x00, 0x00, 0x0c, 0xfc, 0x33, 0xfc, 0x39, 0xfc, 0x39, 0xfc, 0x39,
   0xfc, 0x39, 0xfc, 0x3c, 0xf2, 0x3c, 0xe2, 0x3c, 0xcc, 0x3c, 0x4c, 0x3e,
   0x1c, 0x3e, 0x3c, 0x3f, 0xc0, 0x00, 0x00, 0x00};
