#define flagoff_width 16
#define flagoff_height 16
static char flagoff_bits[] = {
   0x00, 0x00, 0x00, 0x00, 0xfc, 0x3f, 0xfc, 0x3f, 0xfc, 0x3f, 0xfc, 0x3f,
   0xfc, 0x3f, 0xfc, 0x3f, 0xfc, 0x3f, 0xfc, 0x3f, 0xfc, 0x3f, 0xfc, 0x3f,
   0xfc, 0x3f, 0xfc, 0x3f, 0x00, 0x00, 0x00, 0x00};
