#define submenu_width 16
#define submenu_height 16
static char submenu_bits[] = {
   0x00, 0x00, 0x04, 0x00, 0x1c, 0x00, 0x64, 0x00, 0x94, 0x01, 0x74, 0x06,
   0xf4, 0x19, 0xf4, 0x27, 0xf4, 0x3f, 0xf4, 0x1f, 0xf4, 0x07, 0xf4, 0x01,
   0x74, 0x00, 0x1c, 0x00, 0x04, 0x00, 0x00, 0x00};
